{
  "source": "C:\\Users\\Peter\\Desktop\\stuff\\MIUN\\quantitative_research\\video_compression\\videos\\UVG\\ReadySteadyGo_1920x1080_120fps_420_8bit_YUV.y4m",
  "output": "C:\\Users\\Peter\\Desktop\\stuff\\MIUN\\quantitative_research\\video_compression\\compressed_videos\\UVG\\h264\\1.5\\ReadySteadyGo_1920x1080_120fps_420_8bit_YUV_h264.mp4",
  "codec": "h264",
  "ok": "[yuv4mpegpipe @ 000001e9d7e75f00] Stream #0: not enough frames to estimate rate; consider increasing probesize\nInput #0, yuv4mpegpipe, from 'C:\\Users\\Peter\\Desktop\\stuff\\MIUN\\quantitative_research\\video_compression\\videos\\UVG\\ReadySteadyGo_1920x1080_120fps_420_8bit_YUV.y4m':\n  Duration: 00:00:05.00, start: 0.000000, bitrate: 2985989 kb/s\n  Stream #0:0: Video: rawvideo (I420 / 0x30323449), yuv420p(progressive), 1920x1080, 120 fps, 120 tbr, 120 tbn\n[out#0/mp4 @ 000001e9d7e79b40] Codec AVOption b:a (set bitrate (in bits/s)) has not been used for any stream. The most likely reason is either wrong type (e.g. a video option with no video streams) or that it is a private option of some decoder which was not actually used for any stream.\nStream mapping:\n  Stream #0:0 -> #0:0 (rawvideo (native) -> h264 (libx264))\nPress [q] to stop, [?] for help\n[libx264 @ 000001e9d7e7cc00] using cpu capabilities: MMX2 SSE2Fast SSSE3 SSE4.2 AVX FMA3 BMI2 AVX2\n[libx264 @ 000001e9d7e7cc00] profile High, level 5.1, 4:2:0, 8-bit\n[libx264 @ 000001e9d7e7cc00] 264 - core 165 r3222 b35605a - H.264/MPEG-4 AVC codec - Copyleft 2003-2025 - http://www.videolan.org/x264.html - options: cabac=1 ref=5 deblock=1:0:0 analyse=0x3:0x113 me=hex subme=8 psy=1 psy_rd=1.00:0.00 mixed_ref=1 me_range=16 chroma_me=1 trellis=2 8x8dct=1 cqm=0 deadzone=21,11 fast_pskip=1 chroma_qp_offset=-2 threads=18 lookahead_threads=3 sliced_threads=0 nr=0 decimate=1 interlaced=0 bluray_compat=0 constrained_intra=0 bframes=3 b_pyramid=2 b_adapt=1 b_bias=0 direct=3 weightb=1 open_gop=0 weightp=2 keyint=250 keyint_min=25 scenecut=40 intra_refresh=0 rc_lookahead=50 rc=cbr mbtree=1 bitrate=1500 ratetol=1.0 qcomp=0.60 qpmin=0 qpmax=69 qpstep=4 vbv_maxrate=1500 vbv_bufsize=1500 nal_hrd=none filler=0 ip_ratio=1.40 aq=1:1.00\nOutput #0, mp4, to 'C:\\Users\\Peter\\Desktop\\stuff\\MIUN\\quantitative_research\\video_compression\\compressed_videos\\UVG\\h264\\1.5\\ReadySteadyGo_1920x1080_120fps_420_8bit_YUV_h264.mp4':\n  Metadata:\n    encoder         : Lavf62.3.100\n  Stream #0:0: Video: h264 (avc1 / 0x31637661), yuv420p(tv, progressive), 1920x1080, q=2-31, 1500 kb/s, 120 fps, 15360 tbn\n    Metadata:\n      encoder         : Lavc62.11.100 libx264\n    Side data:\n      cpb: bitrate max/min/avg: 1500000/0/1500000 buffer size: 1500000 vbv_delay: N/A\nframe=    0 fps=0.0 q=0.0 size=       0KiB time=N/A bitrate=N/A speed=N/A elapsed=0:00:00.51    \nframe=    0 fps=0.0 q=0.0 size=       0KiB time=N/A bitrate=N/A speed=N/A elapsed=0:00:01.03    \nframe=   24 fps= 15 q=49.0 size=       0KiB time=00:00:00.18 bitrate=   2.1kbits/s speed=0.117x elapsed=0:00:01.56    \nframe=   56 fps= 27 q=49.0 size=       0KiB time=00:00:00.45 bitrate=   0.9kbits/s speed=0.216x elapsed=0:00:02.08    \nframe=   88 fps= 34 q=49.0 size=       0KiB time=00:00:00.71 bitrate=   0.5kbits/s speed=0.274x elapsed=0:00:02.61    \nframe=  116 fps= 37 q=50.0 size=       0KiB time=00:00:00.95 bitrate=   0.4kbits/s speed=0.303x elapsed=0:00:03.13    \nframe=  146 fps= 40 q=51.0 size=       0KiB time=00:00:01.20 bitrate=   0.3kbits/s speed=0.326x elapsed=0:00:03.67    \nframe=  173 fps= 41 q=51.0 size=     256KiB time=00:00:01.42 bitrate=1472.0kbits/s speed=0.339x elapsed=0:00:04.20    \nframe=  201 fps= 43 q=52.0 size=     256KiB time=00:00:01.65 bitrate=1271.2kbits/s speed=0.349x elapsed=0:00:04.72    \nframe=  227 fps= 43 q=54.0 size=     256KiB time=00:00:01.87 bitrate=1118.7kbits/s speed=0.358x elapsed=0:00:05.23    \nframe=  252 fps= 44 q=55.0 size=     256KiB time=00:00:02.08 bitrate=1006.8kbits/s speed=0.362x elapsed=0:00:05.75    \nframe=  282 fps= 45 q=55.0 size=     256KiB time=00:00:02.30 bitrate= 908.7kbits/s speed=0.366x elapsed=0:00:06.31    \nframe=  308 fps= 45 q=57.0 size=     512KiB time=00:00:02.55 bitrate=1645.0kbits/s speed=0.371x elapsed=0:00:06.86    \nframe=  336 fps= 45 q=58.0 size=     512KiB time=00:00:02.78 bitrate=1507.1kbits/s speed=0.377x elapsed=0:00:07.38    \nframe=  364 fps= 46 q=61.0 size=     512KiB time=00:00:03.01 bitrate=1390.5kbits/s speed=0.381x elapsed=0:00:07.92    \nframe=  392 fps= 46 q=61.0 size=     512KiB time=00:00:03.25 bitrate=1290.7kbits/s speed=0.384x elapsed=0:00:08.45    \nframe=  419 fps= 47 q=62.0 size=     512KiB time=00:00:03.45 bitrate=1212.9kbits/s speed=0.385x elapsed=0:00:08.98    \nframe=  450 fps= 47 q=60.0 size=     512KiB time=00:00:03.73 bitrate=1123.6kbits/s speed=0.39x elapsed=0:00:09.56    \nframe=  481 fps= 48 q=60.0 size=     768KiB time=00:00:03.99 bitrate=1576.2kbits/s speed=0.395x elapsed=0:00:10.09    \nframe=  510 fps= 48 q=58.0 size=     768KiB time=00:00:04.23 bitrate=1486.3kbits/s speed=0.399x elapsed=0:00:10.60    \nframe=  552 fps= 50 q=58.0 size=     768KiB time=00:00:04.58 bitrate=1372.8kbits/s speed=0.411x elapsed=0:00:11.15    \n[mp4 @ 000001e9d7e79c40] Starting second pass: moving the moov atom to the beginning of the file\n[out#0/mp4 @ 000001e9d7e79b40] video:943KiB audio:0KiB subtitle:0KiB other streams:0KiB global headers:0KiB muxing overhead: 0.807590%\nframe=  600 fps= 52 q=-1.0 Lsize=     950KiB time=00:00:04.98 bitrate=1562.0kbits/s speed=0.429x elapsed=0:00:11.62    \n[libx264 @ 000001e9d7e7cc00] frame I:3     Avg QP:48.73  size: 10884\n[libx264 @ 000001e9d7e7cc00] frame P:188   Avg QP:49.85  size:  2970\n[libx264 @ 000001e9d7e7cc00] frame B:409   Avg QP:49.11  size:   913\n[libx264 @ 000001e9d7e7cc00] consecutive B-frames:  1.7% 16.7% 17.0% 64.7%\n[libx264 @ 000001e9d7e7cc00] mb I  I16..4: 40.8% 58.9%  0.3%\n[libx264 @ 000001e9d7e7cc00] mb P  I16..4:  7.6%  2.0%  0.0%  P16..4: 11.5%  0.4%  2.3%  0.0%  0.0%    skip:76.2%\n[libx264 @ 000001e9d7e7cc00] mb B  I16..4:  0.0%  0.0%  0.0%  B16..8: 10.7%  0.1%  0.0%  direct: 0.0%  skip:89.2%  L0:30.2% L1:69.7% BI: 0.1%\n[libx264 @ 000001e9d7e7cc00] 8x8 transform intra:26.5% inter:98.0%\n[libx264 @ 000001e9d7e7cc00] direct mvs  spatial:83.6% temporal:16.4%\n[libx264 @ 000001e9d7e7cc00] coded y,uvDC,uvAC intra: 2.0% 22.0% 0.4% inter: 0.1% 0.8% 0.0%\n[libx264 @ 000001e9d7e7cc00] i16 v,h,dc,p: 59% 30%  4%  7%\n[libx264 @ 000001e9d7e7cc00] i8 v,h,dc,ddl,ddr,vr,hd,vl,hu: 18%  4% 60%  3%  3%  4%  3%  2%  2%\n[libx264 @ 000001e9d7e7cc00] i4 v,h,dc,ddl,ddr,vr,hd,vl,hu: 25% 15% 24%  7%  8%  7%  5%  4%  5%\n[libx264 @ 000001e9d7e7cc00] i8c dc,h,v,p: 93%  5%  2%  0%\n[libx264 @ 000001e9d7e7cc00] Weighted P-Frames: Y:0.0% UV:0.0%\n[libx264 @ 000001e9d7e7cc00] ref P L0: 67.0%  1.4% 18.8%  6.1%  6.5%  0.2%\n[libx264 @ 000001e9d7e7cc00] ref B L0: 84.2%  9.5%  5.1%  1.2%\n[libx264 @ 000001e9d7e7cc00] ref B L1: 96.7%  3.3%\n[libx264 @ 000001e9d7e7cc00] kb/s:1543.13\n",
  "seconds": 11.867762088775635,
  "probe_out": {}
}